<?xml version="1.0" encoding="UTF-8" standalone="no"?>
<!DOCTYPE svg PUBLIC "-//W3C//DTD SVG 1.1//EN"
 "http://www.w3.org/Graphics/SVG/1.1/DTD/svg11.dtd">
<!-- Generated by graphviz version 2.47.0 (20210316.0004)
 -->
<!-- Title: dependencies Pages: 1 -->
<svg width="601pt" height="211pt"
 viewBox="0.00 0.00 601.00 211.00" xmlns="http://www.w3.org/2000/svg" xmlns:xlink="http://www.w3.org/1999/xlink">
<g id="graph0" class="graph" transform="scale(1 1) rotate(0) translate(4 207)">
<title>dependencies</title>
<polygon fill="white" stroke="transparent" points="-4,4 -4,-207 597,-207 597,4 -4,4"/>
<text text-anchor="start" x="275.51" y="-42.4" font-family="Times-12" font-weight="bold" font-size="14.00">Legend</text>
<polygon fill="#ffffb3" stroke="transparent" points="62.5,-10 62.5,-30 82.5,-30 82.5,-10 62.5,-10"/>
<text text-anchor="start" x="86.13" y="-15.4" font-family="Times-12" font-size="14.00"> &#160;Declarations</text>
<polygon fill="#8dd3c7" stroke="transparent" points="175.5,-10 175.5,-30 195.5,-30 195.5,-10 175.5,-10"/>
<text text-anchor="start" x="199.23" y="-15.4" font-family="Times-12" font-size="14.00"> &#160;Module</text>
<polygon fill="#80b1d3" stroke="transparent" points="261.5,-10 261.5,-30 281.5,-30 281.5,-10 261.5,-10"/>
<text text-anchor="start" x="285.28" y="-15.4" font-family="Times-12" font-size="14.00"> &#160;Bootstrap</text>
<polygon fill="#fdb462" stroke="transparent" points="358.5,-10 358.5,-30 378.5,-30 378.5,-10 358.5,-10"/>
<text text-anchor="start" x="382.17" y="-15.4" font-family="Times-12" font-size="14.00"> &#160;Providers</text>
<polygon fill="#fb8072" stroke="transparent" points="454.5,-10 454.5,-30 474.5,-30 474.5,-10 454.5,-10"/>
<text text-anchor="start" x="478.23" y="-15.4" font-family="Times-12" font-size="14.00"> &#160;Exports</text>
<g id="clust1" class="cluster">
<title>cluster_AppModule</title>
<polygon fill="none" stroke="black" stroke-dasharray="1,5" points="8,-70 8,-195 585,-195 585,-70 8,-70"/>
</g>
<g id="clust3" class="cluster">
<title>cluster_AppModule_imports</title>
<polygon fill="none" stroke="black" points="16,-78 16,-130 577,-130 577,-78 16,-78"/>
</g>
<!-- AttendanceModule -->
<g id="node1" class="node">
<title>AttendanceModule</title>
<polygon fill="#8dd3c7" stroke="black" points="568.8,-122 565.8,-126 544.8,-126 541.8,-122 445.2,-122 445.2,-86 568.8,-86 568.8,-122"/>
<text text-anchor="middle" x="507" y="-99.8" font-family="Times,serif" font-size="14.00">AttendanceModule</text>
</g>
<!-- AppModule -->
<g id="node5" class="node">
<title>AppModule</title>
<polygon fill="#8dd3c7" stroke="black" points="343.66,-187 340.66,-191 319.66,-191 316.66,-187 260.34,-187 260.34,-151 343.66,-151 343.66,-187"/>
<text text-anchor="middle" x="302" y="-164.8" font-family="Times,serif" font-size="14.00">AppModule</text>
</g>
<!-- AttendanceModule&#45;&gt;AppModule -->
<g id="edge1" class="edge">
<title>AttendanceModule&#45;&gt;AppModule</title>
<path fill="none" stroke="black" d="M507,-122.11C507,-141.34 507,-169 507,-169 507,-169 353.98,-169 353.98,-169"/>
<polygon fill="black" stroke="black" points="353.98,-165.5 343.98,-169 353.98,-172.5 353.98,-165.5"/>
</g>
<!-- CameraModule -->
<g id="node2" class="node">
<title>CameraModule</title>
<polygon fill="#8dd3c7" stroke="black" points="427.58,-122 424.58,-126 403.58,-126 400.58,-122 324.42,-122 324.42,-86 427.58,-86 427.58,-122"/>
<text text-anchor="middle" x="376" y="-99.8" font-family="Times,serif" font-size="14.00">CameraModule</text>
</g>
<!-- CameraModule&#45;&gt;AppModule -->
<g id="edge2" class="edge">
<title>CameraModule&#45;&gt;AppModule</title>
<path fill="none" stroke="black" d="M334.14,-122.11C334.14,-122.11 334.14,-140.99 334.14,-140.99"/>
<polygon fill="black" stroke="black" points="330.64,-140.99 334.14,-150.99 337.64,-140.99 330.64,-140.99"/>
</g>
<!-- FaceRecognitionModule -->
<g id="node3" class="node">
<title>FaceRecognitionModule</title>
<polygon fill="#8dd3c7" stroke="black" points="306.41,-122 303.41,-126 282.41,-126 279.41,-122 151.59,-122 151.59,-86 306.41,-86 306.41,-122"/>
<text text-anchor="middle" x="229" y="-99.8" font-family="Times,serif" font-size="14.00">FaceRecognitionModule</text>
</g>
<!-- FaceRecognitionModule&#45;&gt;AppModule -->
<g id="edge3" class="edge">
<title>FaceRecognitionModule&#45;&gt;AppModule</title>
<path fill="none" stroke="black" d="M283.19,-122.11C283.19,-122.11 283.19,-140.99 283.19,-140.99"/>
<polygon fill="black" stroke="black" points="279.69,-140.99 283.19,-150.99 286.69,-140.99 279.69,-140.99"/>
</g>
<!-- GatewayModule -->
<g id="node4" class="node">
<title>GatewayModule</title>
<polygon fill="#8dd3c7" stroke="black" points="133.8,-122 130.8,-126 109.8,-126 106.8,-122 24.2,-122 24.2,-86 133.8,-86 133.8,-122"/>
<text text-anchor="middle" x="79" y="-99.8" font-family="Times,serif" font-size="14.00">GatewayModule</text>
</g>
<!-- GatewayModule&#45;&gt;AppModule -->
<g id="edge4" class="edge">
<title>GatewayModule&#45;&gt;AppModule</title>
<path fill="none" stroke="black" d="M79,-122.11C79,-141.34 79,-169 79,-169 79,-169 250.32,-169 250.32,-169"/>
<polygon fill="black" stroke="black" points="250.32,-172.5 260.32,-169 250.32,-165.5 250.32,-172.5"/>
</g>
</g>
</svg>
