<?xml version="1.0" encoding="UTF-8" standalone="no"?>
<!DOCTYPE svg PUBLIC "-//W3C//DTD SVG 1.1//EN"
 "http://www.w3.org/Graphics/SVG/1.1/DTD/svg11.dtd">
<!-- Generated by graphviz version 2.47.0 (20210316.0004)
 -->
<!-- Title: dependencies Pages: 1 -->
<svg width="662pt" height="211pt"
 viewBox="0.00 0.00 662.00 211.00" xmlns="http://www.w3.org/2000/svg" xmlns:xlink="http://www.w3.org/1999/xlink">
<g id="graph0" class="graph" transform="scale(1 1) rotate(0) translate(4 207)">
<title>dependencies</title>
<polygon fill="white" stroke="transparent" points="-4,4 -4,-207 658,-207 658,4 -4,4"/>
<text text-anchor="start" x="306.01" y="-42.4" font-family="Times-12" font-weight="bold" font-size="14.00">Legend</text>
<polygon fill="#ffffb3" stroke="transparent" points="93,-10 93,-30 113,-30 113,-10 93,-10"/>
<text text-anchor="start" x="116.63" y="-15.4" font-family="Times-12" font-size="14.00"> &#160;Declarations</text>
<polygon fill="#8dd3c7" stroke="transparent" points="206,-10 206,-30 226,-30 226,-10 206,-10"/>
<text text-anchor="start" x="229.73" y="-15.4" font-family="Times-12" font-size="14.00"> &#160;Module</text>
<polygon fill="#80b1d3" stroke="transparent" points="292,-10 292,-30 312,-30 312,-10 292,-10"/>
<text text-anchor="start" x="315.78" y="-15.4" font-family="Times-12" font-size="14.00"> &#160;Bootstrap</text>
<polygon fill="#fdb462" stroke="transparent" points="389,-10 389,-30 409,-30 409,-10 389,-10"/>
<text text-anchor="start" x="412.67" y="-15.4" font-family="Times-12" font-size="14.00"> &#160;Providers</text>
<polygon fill="#fb8072" stroke="transparent" points="485,-10 485,-30 505,-30 505,-10 485,-10"/>
<text text-anchor="start" x="508.73" y="-15.4" font-family="Times-12" font-size="14.00"> &#160;Exports</text>
<g id="clust1" class="cluster">
<title>cluster_FaceRecognitionModule</title>
<polygon fill="none" stroke="black" stroke-dasharray="1,5" points="8,-70 8,-195 646,-195 646,-70 8,-70"/>
</g>
<g id="clust6" class="cluster">
<title>cluster_FaceRecognitionModule_providers</title>
<polygon fill="none" stroke="black" points="412,-78 412,-130 638,-130 638,-78 412,-78"/>
</g>
<g id="clust3" class="cluster">
<title>cluster_FaceRecognitionModule_imports</title>
<polygon fill="none" stroke="black" points="16,-78 16,-130 404,-130 404,-78 16,-78"/>
</g>
<!-- AttendanceModule -->
<g id="node1" class="node">
<title>AttendanceModule</title>
<polygon fill="#8dd3c7" stroke="black" points="395.8,-122 392.8,-126 371.8,-126 368.8,-122 272.2,-122 272.2,-86 395.8,-86 395.8,-122"/>
<text text-anchor="middle" x="334" y="-99.8" font-family="Times,serif" font-size="14.00">AttendanceModule</text>
</g>
<!-- FaceRecognitionModule -->
<g id="node4" class="node">
<title>FaceRecognitionModule</title>
<polygon fill="#8dd3c7" stroke="black" points="345.41,-187 342.41,-191 321.41,-191 318.41,-187 190.59,-187 190.59,-151 345.41,-151 345.41,-187"/>
<text text-anchor="middle" x="268" y="-164.8" font-family="Times,serif" font-size="14.00">FaceRecognitionModule</text>
</g>
<!-- AttendanceModule&#45;&gt;FaceRecognitionModule -->
<g id="edge1" class="edge">
<title>AttendanceModule&#45;&gt;FaceRecognitionModule</title>
<path fill="none" stroke="black" d="M308.78,-122.11C308.78,-122.11 308.78,-140.99 308.78,-140.99"/>
<polygon fill="black" stroke="black" points="305.28,-140.99 308.78,-150.99 312.28,-140.99 305.28,-140.99"/>
</g>
<!-- CameraModule -->
<g id="node2" class="node">
<title>CameraModule</title>
<polygon fill="#8dd3c7" stroke="black" points="254.58,-122 251.58,-126 230.58,-126 227.58,-122 151.42,-122 151.42,-86 254.58,-86 254.58,-122"/>
<text text-anchor="middle" x="203" y="-99.8" font-family="Times,serif" font-size="14.00">CameraModule</text>
</g>
<!-- CameraModule&#45;&gt;FaceRecognitionModule -->
<g id="edge2" class="edge">
<title>CameraModule&#45;&gt;FaceRecognitionModule</title>
<path fill="none" stroke="black" d="M222.67,-122.11C222.67,-122.11 222.67,-140.99 222.67,-140.99"/>
<polygon fill="black" stroke="black" points="219.17,-140.99 222.67,-150.99 226.17,-140.99 219.17,-140.99"/>
</g>
<!-- GatewayModule -->
<g id="node3" class="node">
<title>GatewayModule</title>
<polygon fill="#8dd3c7" stroke="black" points="133.8,-122 130.8,-126 109.8,-126 106.8,-122 24.2,-122 24.2,-86 133.8,-86 133.8,-122"/>
<text text-anchor="middle" x="79" y="-99.8" font-family="Times,serif" font-size="14.00">GatewayModule</text>
</g>
<!-- GatewayModule&#45;&gt;FaceRecognitionModule -->
<g id="edge3" class="edge">
<title>GatewayModule&#45;&gt;FaceRecognitionModule</title>
<path fill="none" stroke="black" d="M79,-122.11C79,-141.34 79,-169 79,-169 79,-169 180.58,-169 180.58,-169"/>
<polygon fill="black" stroke="black" points="180.58,-172.5 190.58,-169 180.58,-165.5 180.58,-172.5"/>
</g>
<!-- FaceRecognitionService -->
<g id="node5" class="node">
<title>FaceRecognitionService</title>
<ellipse fill="#fdb462" stroke="black" cx="525" cy="-104" rx="105.35" ry="18"/>
<text text-anchor="middle" x="525" y="-99.8" font-family="Times,serif" font-size="14.00">FaceRecognitionService</text>
</g>
<!-- FaceRecognitionService&#45;&gt;FaceRecognitionModule -->
<g id="edge4" class="edge">
<title>FaceRecognitionService&#45;&gt;FaceRecognitionModule</title>
<path fill="none" stroke="black" d="M525,-122.11C525,-141.34 525,-169 525,-169 525,-169 355.46,-169 355.46,-169"/>
<polygon fill="black" stroke="black" points="355.46,-165.5 345.46,-169 355.46,-172.5 355.46,-165.5"/>
</g>
</g>
</svg>
